HIERARCHY
ROOT Hips
{
	OFFSET -0.179506 -22.333345 2.821913
	CHANNELS 6 Xposition Yposition Zposition Zrotation Yrotation Xrotation 
	JOINT LeftUpLeg
	{
		OFFSET 6.951974 -9.140623 -0.681533
		CHANNELS 3 Zrotation Yrotation Xrotation
		JOINT LeftLeg
		{
			OFFSET 3.427654 -37.519855 -0.449580
			CHANNELS 3 Zrotation Yrotation Xrotation
			JOINT LeftFoot
			{
				OFFSET -1.359570 -39.796059 -4.369333
				CHANNELS 3 Zrotation Yrotation Xrotation
				JOINT LeftToe
				{
					OFFSET 2.635814 -5.579078 11.928840
					CHANNELS 3 Zrotation Yrotation Xrotation
					End Site
					{
						OFFSET 0.000000 0.000000 0.000000
					}
				}
			}
		}
	}
	JOINT RightUpLeg
	{
		OFFSET -6.767048 -9.052170 -0.431982
		CHANNELS 3 Zrotation Yrotation Xrotation
		JOINT RightLeg
		{
			OFFSET -3.829005 -38.256897 -0.885003
			CHANNELS 3 Zrotation Yrotation Xrotation
			JOINT RightFoot
			{
				OFFSET 1.577377 -39.841461 -4.231180
				CHANNELS 3 Zrotation Yrotation Xrotation
				JOINT RightToe
				{
					OFFSET -2.537174 -4.814398 12.334795
					CHANNELS 3 Zrotation Yrotation Xrotation
					End Site
					{
						OFFSET 0.000000 0.000000 0.000000
					}
				}
			}
		}
	}
	JOINT Spine
	{
		OFFSET -0.253288 10.896323 -2.669631
		CHANNELS 3 Zrotation Yrotation Xrotation
		JOINT Spine1
		{
			OFFSET 0.548704 13.518043 0.109247
			CHANNELS 3 Zrotation Yrotation Xrotation
			JOINT Spine2
			{
				OFFSET 0.145701 5.292222 2.542457
				CHANNELS 3 Zrotation Yrotation Xrotation
				JOINT Neck
				{
					OFFSET -0.277840 21.387037 -4.285703
					CHANNELS 3 Zrotation Yrotation Xrotation
					JOINT Head
					{
						OFFSET 0.515184 6.496960 5.134897
						CHANNELS 3 Zrotation Yrotation Xrotation
						End Site
						{
							OFFSET 0.000000 0.000000 0.000000
						}
					}
				}
				JOINT LeftShoulder
				{
					OFFSET 7.884473 12.174932 -3.408961
					CHANNELS 3 Zrotation Yrotation Xrotation
					JOINT LeftArm
					{
						OFFSET 9.097692 3.046888 -0.886815
						CHANNELS 3 Zrotation Yrotation Xrotation
						JOINT LeftForeArm
						{
							OFFSET 25.961220 -1.277207 -2.745643
							CHANNELS 3 Zrotation Yrotation Xrotation
							JOINT LeftHand
							{
								OFFSET 24.923361 0.898606 -0.117091
								CHANNELS 3 Zrotation Yrotation Xrotation
								End Site
								{
									OFFSET 0.000000 0.000000 0.000000
								}
							}
						}
					}
				}
				JOINT RightShoulder
				{
					OFFSET -8.175920 11.883285 -3.861528
					CHANNELS 3 Zrotation Yrotation Xrotation
					JOINT RightArm
					{
						OFFSET -9.601238 3.255117 -0.914307
						CHANNELS 3 Zrotation Yrotation Xrotation
						JOINT RightForeArm
						{
							OFFSET -25.374195 -1.332924 -2.140099
							CHANNELS 3 Zrotation Yrotation Xrotation
							JOINT RightHand
							{
								OFFSET -25.529810 0.777228 -0.555919
								CHANNELS 3 Zrotation Yrotation Xrotation
								End Site
								{
									OFFSET 0.000000 0.000000 0.000000
								}
							}
						}
					}
				}
			}
		}
	}
}
MOTION
Frames: 12
Frame Time: 0.033333
-10.715729 -18.911898 90.370598 -126.305802 3.286279 84.625409 17.178390 7.373744 -4.304995 -5.898969 1.450743 25.350022 1.542100 11.090949 -25.566485 nan nan nan -13.440916 -9.824740 -10.432435 3.749439 -7.467899 16.113879 6.039601 -3.948069 -6.287579 nan nan nan -6.593801 1.747694 1.869129 8.125231 -7.217196 10.327345 2.050576 -0.390915 -5.397464 3.770897 -17.696340 16.778686 6.083204 -11.812485 21.435062 -17.584082 -14.155562 6.241557 -60.057527 -42.154265 27.770339 151.318636 -70.241589 -120.247719 1.196884 -18.201711 -10.253710 16.591032 7.636944 -3.237153 29.450499 22.465341 -9.145186 -101.501463 51.632645 -79.214342 -4.203006 6.281481 -3.084256 
-10.670405 -18.918034 90.405098 -126.349828 3.319439 84.521109 17.272649 7.457364 -4.221748 -5.949093 1.391429 25.350091 1.496727 11.040657 -25.649313 nan nan nan -13.387718 -9.896674 -10.405981 3.716533 -7.548225 16.169219 5.306001 -4.227279 -7.279214 nan nan nan -6.683519 1.799316 1.986951 8.180120 -7.176435 10.414743 2.133146 -0.407201 -5.538408 4.000048 -17.907023 16.657534 6.072332 -12.113123 21.648456 -17.493434 -14.003481 6.269509 -60.621969 -42.241170 28.034073 151.040100 -70.233380 -120.102786 0.521723 -18.312104 -10.088630 16.650006 7.474866 -3.274912 29.323478 22.476897 -9.191941 -101.357054 51.612099 -78.896812 -3.634037 6.238758 -2.639674 
-10.636966 -18.884888 90.419113 -126.419220 3.348287 84.393043 17.410820 7.654552 -4.087625 -6.009639 1.313065 25.391907 1.479074 10.869047 -25.678540 nan nan nan -13.345490 -9.958637 -10.307854 3.676944 -7.669736 16.149515 5.265556 -4.182848 -7.429410 nan nan nan -6.770992 1.872950 1.958670 8.250149 -7.165398 10.748289 2.190965 -0.387503 -5.997630 3.056499 -18.194651 18.395874 5.277100 -12.375338 22.062317 -17.411205 -14.003867 6.672996 -60.885145 -42.364973 27.928453 150.642295 -70.230252 -119.783647 0.003120 -18.637982 -9.899667 16.581325 7.451245 -2.955338 29.319473 22.463598 -9.429265 -101.219916 51.518174 -78.503656 -3.185126 6.411277 -2.443014 
-10.602010 -18.887281 90.438103 -126.475604 3.332784 84.401344 17.404561 7.689954 -4.103120 -6.013906 1.347600 25.409648 1.477896 10.832500 -25.676133 nan nan nan -13.343001 -9.925765 -10.375223 3.646908 -7.688241 16.152827 5.249792 -4.157572 -7.411353 nan nan nan -6.760426 1.840343 1.897460 8.231980 -7.146594 10.819600 2.166315 -0.371113 -6.104381 3.021281 -18.210974 18.538557 5.226398 -12.412109 21.996359 -17.403965 -13.907861 6.642925 -60.921007 -42.296586 27.974690 150.673152 -70.207407 -119.783594 -0.013546 -18.724206 -9.944059 16.520399 7.398283 -2.935725 29.461027 22.519126 -9.357197 -101.142913 51.480103 -78.413505 -3.236275 6.503294 -2.569669 
-10.565673 -18.912035 90.460098 -126.487274 3.370307 84.419205 17.435965 7.717981 -4.215628 -6.022980 1.372659 25.512547 1.433480 10.795404 -25.639676 nan nan nan -13.283989 -9.841334 -10.435615 3.607030 -7.559234 16.210738 5.228854 -4.132660 -7.435117 nan nan nan -6.678792 1.805366 1.850973 8.230908 -7.145610 10.859116 2.165713 -0.365016 -6.148625 3.076962 -18.136922 18.538588 5.138991 -12.342318 21.953405 -17.466369 -13.899554 6.612437 -60.905667 -42.192741 27.972871 150.737088 -70.262567 -119.572208 0.407653 -18.730522 -9.782936 16.426004 7.398729 -2.912829 29.432675 22.476615 -9.313531 -101.031579 51.466727 -78.322259 -3.463263 6.643931 -2.813840 
-10.507058 -18.922785 90.355835 -126.438969 3.406405 83.860321 17.815700 7.566490 -3.670766 -6.128923 1.871480 25.556594 1.665257 10.143842 -25.524222 nan nan nan -13.325178 -10.027813 -9.888528 3.267085 -7.853478 16.556978 4.584909 -2.762866 -7.875669 nan nan nan -6.958376 1.951123 2.270436 8.749656 -7.210031 14.037064 2.208032 -0.288281 -8.992748 3.640137 -18.026947 17.618965 4.094980 -12.941071 21.398655 -17.333499 -11.528894 7.039069 -64.695558 -44.091084 30.770848 147.761103 -70.191250 -118.565273 -4.612270 -19.596469 -5.312719 16.386949 6.024987 -1.909444 28.329243 24.813869 -10.952586 -99.186005 49.722724 -71.546651 3.731634 7.113454 9.327535 
-10.504176 -18.960390 90.377525 -126.397636 3.464576 83.883685 17.859627 7.505657 -3.726932 -6.171081 1.849037 25.533457 1.543590 10.271478 -25.416285 nan nan nan -13.213617 -9.935642 -9.854367 3.257372 -7.721894 16.449411 4.623379 -2.937763 -7.809488 nan nan nan -6.983116 2.064728 2.030762 8.715920 -7.145327 13.978666 2.311688 -0.302371 -8.656547 3.898719 -18.261348 17.442583 4.116729 -13.053536 21.391490 -17.329647 -12.085643 7.185297 -64.324783 -44.195432 30.408582 147.440353 -70.257754 -118.151588 -4.311822 -19.505999 -4.711940 16.430567 6.253338 -2.139249 28.083956 24.250082 -11.126613 -99.196425 49.760476 -71.839668 3.778195 7.073690 9.471482 
-10.513889 -18.978931 90.374252 -126.397588 3.453375 83.833961 17.869233 7.475750 -3.636981 -6.192444 1.876560 25.481495 1.510947 10.242514 -25.360265 nan nan nan -13.228970 -9.918771 -9.821491 3.250435 -7.948927 16.465527 4.614932 -2.865482 -7.856030 nan nan nan -7.167082 2.188992 1.904651 8.782970 -7.066100 14.456993 2.456021 -0.395145 -8.858373 3.231263 -18.331224 18.086096 4.606882 -13.772328 20.121619 -17.100452 -12.110636 7.100019 -64.784297 -44.406921 30.709515 146.522921 -70.179383 -117.602605 -5.207415 -19.854331 -3.920480 16.349678 6.298532 -2.431888 28.114870 24.075107 -11.142525 -99.176702 49.733956 -71.898352 4.443996 7.254612 9.827457 
-10.519754 -19.009527 90.355881 -126.413150 3.440790 83.791863 17.863016 7.463091 -3.580231 -6.211029 1.902788 25.465641 1.535125 10.262561 -25.371278 nan nan nan -13.265518 -9.928306 -9.833447 3.262398 -8.041207 16.535874 4.603111 -2.825094 -7.882145 nan nan nan -7.167832 2.172002 1.878474 8.832731 -7.059979 14.773108 2.505656 -0.531732 -9.061998 3.278266 -18.181633 17.889610 4.541466 -13.850719 19.954585 -17.045817 -11.876473 6.978823 -64.919102 -44.479134 30.706853 146.463783 -70.106872 -117.684565 -5.712167 -19.942687 -3.659684 16.184093 6.349367 -2.275565 28.147913 24.375446 -11.184357 -99.079571 49.649239 -71.822353 4.523448 7.245553 9.915609 
-10.517384 -19.017614 90.352493 -126.402200 3.426255 83.803168 17.852564 7.461211 -3.600840 -6.244978 1.884335 25.479960 1.545439 10.269644 -25.356825 nan nan nan -13.283302 -9.954685 -9.883304 3.270195 -8.009753 16.585076 4.602881 -2.836827 -7.854513 nan nan nan -7.137399 2.105407 1.866725 8.793964 -7.106579 14.822326 2.452766 -0.514145 -9.142200 3.296644 -18.174465 17.832967 4.470731 -13.779496 20.169713 -17.012984 -11.802784 6.978269 -64.923981 -44.407164 30.689579 146.775425 -70.113676 -117.903660 -5.451118 -19.775092 -3.868900 16.224568 6.367070 -2.154456 28.146984 24.463629 -11.184325 -99.055269 49.634115 -71.823141 4.378055 7.170725 9.974620 
-10.509009 -19.018906 90.360100 -126.348997 3.447323 83.853729 17.859912 7.443856 -3.688180 -6.281030 1.794135 25.486333 1.525524 10.324037 -25.300696 nan nan nan -13.247295 -9.995332 -9.943370 3.280750 -7.943378 16.594868 4.560309 -2.913680 -7.784669 nan nan nan -7.163017 2.142594 1.737023 8.782761 -7.128055 14.869684 2.450901 -0.443519 -9.139285 3.341864 -18.442920 17.739341 4.410891 -13.718628 20.487593 -17.026124 -12.086733 7.070139 -64.908109 -44.273331 30.707485 146.979178 -70.104174 -117.996466 -4.859825 -19.469304 -4.631643 16.349991 6.381202 -2.301636 28.016805 24.174263 -11.170516 -99.076943 49.677678 -71.976990 4.131144 7.039590 9.851386 
-10.501819 -19.032698 90.367424 -126.328097 3.484122 83.860303 17.896080 7.439288 -3.729818 -6.335799 1.693556 25.486063 1.509982 10.407442 -25.312199 nan nan nan -13.179534 -9.942068 -9.964826 3.255478 -7.829269 16.585912 4.434356 -2.937208 -7.856158 nan nan nan -7.274332 2.329841 1.408351 8.851973 -7.057768 15.264594 2.591682 -0.478121 -9.154417 3.460304 -18.691679 17.582948 4.331040 -13.757313 20.534415 -17.119889 -12.697340 7.171722 -64.639430 -44.248270 30.473970 146.603548 -70.018163 -117.604518 -4.764026 -19.406025 -5.170940 16.392831 6.542510 -2.617524 27.756616 23.667239 -11.253260 -99.091817 49.661091 -72.155671 4.122472 6.988649 9.690462 
